<svg class="DesktopFooter-logo___2301J" xmlns="http://www.w3.org/2000/svg" width="46" height="46" fill="none" viewBox="0 0 46 46"><path fill="#FA575D" fill-rule="evenodd" d="M44.347 23.011c0-10.813-28.925-28.104-37.589-21.58-8.664 6.479-9.351 37.731 0 43.206 9.351 5.43 37.59-10.813 37.59-21.626z" clip-rule="evenodd"></path><path fill="#fff" fill-rule="evenodd" d="M22.625 32.272c-4 0-4.882-2.129-4.882-4.665v-6.159h-1.247c-1.454 0-1.714-.86-1.714-1.313 0-.453.26-1.313 1.714-1.313h1.247v-2.265c0-1.494 1.247-1.766 1.87-1.766s1.87.272 1.87 1.766v2.265h2.337c1.454 0 1.713.86 1.713 1.313 0 .453-.26 1.313-1.713 1.313h-2.337v6.114c0 1.267.519 1.992 1.454 1.992.156 0 .363-.044.623-.044.26-.046.311-.046.415-.046.935 0 1.454.589 1.454 1.223 0 .543-.363.95-.934 1.222-.52.227-1.195.363-1.87.363z" clip-rule="evenodd"></path>
</svg>